<svg xmlns="http://www.w3.org/2000/svg" viewBox="0 0 565.42 70.7"><defs><style>.cls-1{fill:#fff;}.cls-2{fill:#eb7e17;}</style></defs><title>Asset 1</title><g id="Layer_2" data-name="Layer 2"><g id="Layer_1-2" data-name="Layer 1"><path class="cls-1" d="M48.94,53.79H17.88V42H41a1.83,1.83,0,0,0,1.48-.6A1.91,1.91,0,0,0,43,40.11v-10a1.59,1.59,0,0,0-.58-1.39A2.43,2.43,0,0,0,41,28.33H17.88V16.87H47.83a1.92,1.92,0,0,0,1.62-.71,2.41,2.41,0,0,0,.55-1.5V3.23a2.28,2.28,0,0,0-.55-1.61A2,2,0,0,0,47.87,1H2a1.93,1.93,0,0,0-1.5.58A2.2,2.2,0,0,0,0,3.14V67.65a1.89,1.89,0,0,0,.55,1.5A2.16,2.16,0,0,0,2,69.64H48.75q1.71,0,1.89-1.29a1.14,1.14,0,0,0,.37-.83V55.91A1.86,1.86,0,0,0,48.94,53.79Z"/><path class="cls-1" d="M108,50.32a1.89,1.89,0,0,0-1.11-.83,2.13,2.13,0,0,0-1.39.42,18,18,0,0,1-10.86,3.6,16.83,16.83,0,0,1-12.48-5.34,17.92,17.92,0,0,1-3.6-5.78,20.15,20.15,0,0,1,0-14.21,18.14,18.14,0,0,1,3.6-5.82A16.74,16.74,0,0,1,94.68,17a17.87,17.87,0,0,1,5.78.92,17.63,17.63,0,0,1,5,2.63,2,2,0,0,0,1.41.39,1.82,1.82,0,0,0,1.09-.9L115.75,9a1.91,1.91,0,0,0,.14-1.76A2.89,2.89,0,0,0,114.74,6a36,36,0,0,0-9.27-4.46A35.81,35.81,0,0,0,85.6,1.27a36.23,36.23,0,0,0-8.43,3.56A34.47,34.47,0,0,0,70,10.35a35.82,35.82,0,0,0-5.52,7.19A35.75,35.75,0,0,0,60.95,44.8a34.51,34.51,0,0,0,3.56,8.41A35.8,35.8,0,0,0,77.17,65.85a35.6,35.6,0,0,0,28.4,3.21,36.71,36.71,0,0,0,9.36-4.51,3,3,0,0,0,1.16-1.16,1.82,1.82,0,0,0-.14-1.71Z"/><path class="cls-1" d="M185.72,1.48A2.84,2.84,0,0,0,184.11,1H170.6a2,2,0,0,0-1.5.6,2,2,0,0,0-.58,1.44V25h-23V3.05a1.78,1.78,0,0,0-.74-1.46A2.35,2.35,0,0,0,143.39,1H129.66a1.76,1.76,0,0,0-1.41.62A2.33,2.33,0,0,0,127.68,3V67.84q0,1.8,2,1.8h13.59a2.52,2.52,0,0,0,1.69-.53,1.86,1.86,0,0,0,.62-1.5V41.36h23V67.61a1.93,1.93,0,0,0,.58,1.52,2.18,2.18,0,0,0,1.5.51h13.64a2.34,2.34,0,0,0,1.57-.51,1.89,1.89,0,0,0,.6-1.52V3A1.65,1.65,0,0,0,185.72,1.48Z"/><path class="cls-1" d="M264.2,17.54A35.09,35.09,0,0,0,251.51,4.83,36.17,36.17,0,0,0,243,1.27a35.38,35.38,0,0,0-18.8,0,36.28,36.28,0,0,0-8.44,3.56,34.48,34.48,0,0,0-7.14,5.52,35.8,35.8,0,0,0-5.53,7.19,35.73,35.73,0,0,0-3.56,27.26,34.5,34.5,0,0,0,3.56,8.41,35.83,35.83,0,0,0,12.67,12.64,35.43,35.43,0,0,0,35.7,0,36.12,36.12,0,0,0,7.17-5.52,34.72,34.72,0,0,0,5.53-7.12,35.78,35.78,0,0,0,3.56-8.41,35.41,35.41,0,0,0,0-18.81A36.69,36.69,0,0,0,264.2,17.54Zm-30.52,1.25a18,18,0,0,1,18,17,1,1,0,0,1-1,1H216.71a1,1,0,0,1-1-1A18,18,0,0,1,233.68,18.79Zm18,24.74a6.26,6.26,0,0,1-6.26,6.26H221.95a6.26,6.26,0,0,1-6.26-6.26V40.79a1,1,0,0,1,1-1h34a1,1,0,0,1,1,1Z"/><path class="cls-1" d="M350.22,3a2.16,2.16,0,0,0-.76-1.46A2.24,2.24,0,0,0,348,1h-15.8a2.37,2.37,0,0,0-2.36,1.76l-12.66,42-12.57-42A2.15,2.15,0,0,0,302.35,1h-16a2,2,0,0,0-1.57.6A2.46,2.46,0,0,0,284.14,3l-6.61,64.56a1.78,1.78,0,0,0,2,2H292.6q2.17,0,2.26-2l4-35.63,10.4,35.86A2,2,0,0,0,310,69a1.75,1.75,0,0,0,1.18.62h12.15a1.59,1.59,0,0,0,1.13-.65,2.6,2.6,0,0,0,.67-1.11l10.4-36,4,35.72a1.93,1.93,0,0,0,2.22,2H354.8q2,0,2-1.8v-.23q-1.62-16.27-3.3-32.28T350.22,3Z"/><path class="cls-1" d="M418,53.79H387V42h23.15a1.83,1.83,0,0,0,1.48-.6,1.91,1.91,0,0,0,.51-1.25v-10a1.59,1.59,0,0,0-.58-1.39,2.43,2.43,0,0,0-1.46-.42H387V16.87h29.94a1.92,1.92,0,0,0,1.62-.71,2.41,2.41,0,0,0,.55-1.5V3.23a2.28,2.28,0,0,0-.55-1.61A2,2,0,0,0,417,1H371.11a1.93,1.93,0,0,0-1.5.58,2.2,2.2,0,0,0-.53,1.55V67.65a1.89,1.89,0,0,0,.55,1.5,2.16,2.16,0,0,0,1.48.49h46.72q1.71,0,1.89-1.29a1.14,1.14,0,0,0,.37-.83V55.91A1.86,1.86,0,0,0,418,53.79Z"/><path class="cls-1" d="M489.87,1H476.7a2,2,0,0,0-1.29.46,2.26,2.26,0,0,0-.74,1.29v37Q468.75,30.31,463,21.12T451.33,2.45a2.94,2.94,0,0,0-1.2-1.11A3.17,3.17,0,0,0,448.79,1H433.68a1.89,1.89,0,0,0-1.53.6A2.15,2.15,0,0,0,431.65,3v64.6a2.11,2.11,0,0,0,.49,1.41,1.91,1.91,0,0,0,1.55.58H446.8a1.77,1.77,0,0,0,2.13-2V27.91q6.19,10.17,12.2,20.1l12.15,20.1a7.3,7.3,0,0,0,1,1.11,1.54,1.54,0,0,0,1.06.42h14.74a2.39,2.39,0,0,0,1.53-.44,1.63,1.63,0,0,0,.55-1.36V3a1.84,1.84,0,0,0-.65-1.5A2.47,2.47,0,0,0,489.87,1Z"/><path class="cls-1" d="M564.82,1.64A2.2,2.2,0,0,0,563.16,1H549.67a2,2,0,0,0-1.55.6,2,2,0,0,0-.58,1.43V42.27a15.06,15.06,0,0,1-.9,5.41,11.47,11.47,0,0,1-2.45,4A10.16,10.16,0,0,1,540.57,54a11.85,11.85,0,0,1-4.38.81,13.33,13.33,0,0,1-4.28-.69A9.46,9.46,0,0,1,528.3,52a11,11,0,0,1-2.5-3.89,15.71,15.71,0,0,1-.95-5.8V3.05a1.76,1.76,0,0,0-.76-1.46A2.43,2.43,0,0,0,522.64,1H508.81a1.66,1.66,0,0,0-1.31.62A2.12,2.12,0,0,0,507,3V42a33.65,33.65,0,0,0,2.38,13.42,23.78,23.78,0,0,0,6.4,8.87,24.66,24.66,0,0,0,9.33,4.9,40.78,40.78,0,0,0,11.14,1.5,41.72,41.72,0,0,0,11.11-1.46,24.51,24.51,0,0,0,9.31-4.81,23.34,23.34,0,0,0,6.4-8.85A34.24,34.24,0,0,0,565.42,42V3A2,2,0,0,0,564.82,1.64Z"/><path class="cls-2" d="M241.68,25.79a1,1,0,1,1-1,1A1,1,0,0,1,241.68,25.79Zm-10.5-4a1.5,1.5,0,1,1-1.5,1.5A1.5,1.5,0,0,1,231.18,21.79Zm-5.5,6a1,1,0,1,1-1,1A1,1,0,0,1,225.68,27.79Z"/><circle class="cls-1" cx="225.68" cy="28.79" r="1"/><circle class="cls-1" cx="231.18" cy="23.29" r="1.5"/><circle class="cls-1" cx="241.68" cy="26.79" r="1"/></g></g></svg>
